<?xml version="1.0" encoding="utf-8"?>
<!-- Generator: Adobe Illustrator 20.1.0, SVG Export Plug-In . SVG Version: 6.00 Build 0)  -->
<svg version="1.1" xmlns="http://www.w3.org/2000/svg" xmlns:xlink="http://www.w3.org/1999/xlink" x="0px" y="0px"
	 viewBox="0 0 500 500" style="enable-background:new 0 0 500 500;" xml:space="preserve">
<style type="text/css">
	.st0{fill:#F9F9F9;}
	.st1{fill:#9BB9B9;}
	.st2{fill:#233332;}
	.st3{fill:none;stroke:#F9F9F9;stroke-linecap:round;stroke-linejoin:round;stroke-miterlimit:10;}
	.st4{fill:#4D60A4;}
	.st5{fill:#3C4A77;}
	.st6{fill:none;stroke:#3C4A77;stroke-linecap:round;stroke-linejoin:round;stroke-miterlimit:10;}
	.st7{fill:#E6817D;}
	.st8{fill:#AA3F37;}
	.st9{fill:none;stroke:#D85145;stroke-linecap:round;stroke-linejoin:round;stroke-miterlimit:10;}
	.st10{fill:#00918C;}
	.st11{fill:none;stroke:#007F7A;stroke-linecap:round;stroke-linejoin:round;stroke-miterlimit:10;}
	.st12{fill:none;stroke:#AA3F37;stroke-linecap:round;stroke-linejoin:round;stroke-miterlimit:10;}
	.st13{fill:none;stroke:#233332;stroke-linecap:round;stroke-linejoin:round;stroke-miterlimit:10;}
	.st14{fill:#FADB81;}
	.st15{fill:none;stroke:#769494;stroke-linecap:round;stroke-linejoin:round;stroke-miterlimit:10;}
	.st16{fill:none;stroke:#3C4A77;stroke-width:3;stroke-miterlimit:10;}
	.st17{fill:#E78C60;}
	.st18{fill:#D85145;}
	.st19{fill:#769494;}
	.st20{fill:#852B22;}
	.st21{fill:#007F7A;}
	.st22{fill:none;stroke:#852B22;stroke-linecap:round;stroke-linejoin:round;stroke-miterlimit:10;}
	.st23{fill:none;stroke:#E6817D;stroke-linecap:round;stroke-linejoin:round;stroke-miterlimit:10;}
	.st24{fill:none;stroke:#FADB81;stroke-linecap:round;stroke-linejoin:round;stroke-miterlimit:10;}
	.st25{fill:none;stroke:#D85145;stroke-width:0.8906;stroke-linecap:round;stroke-linejoin:round;stroke-miterlimit:10;}
	.st26{fill:none;stroke:#AA3F37;stroke-width:0.8908;stroke-linecap:round;stroke-linejoin:round;stroke-miterlimit:10;}
	.st27{fill:none;stroke:#233332;stroke-width:0.8908;stroke-linecap:round;stroke-linejoin:round;stroke-miterlimit:10;}
</style>
<g id="BACKGROUND">
	<rect class="st0" width="500" height="500"/>
</g>
<g id="OBJECTS">
	<g>
		<g>
			<path class="st1" d="M353.1,406l8.2,28.7c0,0,6,7.4,8.7,14.4h-46.5l8-11.9l-6.3-31.3H353.1z"/>
			<path class="st2" d="M331.6,437.3l-8,11.9H370c-2.7-7-8.7-14.4-8.7-14.4C338.7,428.4,331.6,437.3,331.6,437.3z"/>
			<path class="st1" d="M323.5,449.2c0,0,7-12.4,24.6-10.2c17.7,2.2,21.9,10.2,21.9,10.2H323.5z"/>
			<line class="st3" x1="333.9" y1="420.6" x2="335.8" y2="434.5"/>
			<line class="st3" x1="343.1" y1="420.6" x2="345.1" y2="432.5"/>
			<line class="st3" x1="352.4" y1="420.6" x2="354.2" y2="433.1"/>
		</g>
		<g>
			<g>
				<path class="st1" d="M253.7,401.6l2,31.5c0,0-18.3,8.2-21.3,15.8h49.9v-47.3H253.7z"/>
				<g>
					<path class="st2" d="M284.3,437.9c-5.4,4.4-11.5,2.3-15.5,1.2c-2.7-0.7-8.6-4.3-13.1-5.9c-1.5,0.7-18.3,8.4-21.2,15.8h49.9
						V437.9z"/>
					<path class="st1" d="M252.4,445.9c-0.5-3.3-5-5.8-7.6-6.9c-4.5,2.9-9.1,6.5-10.5,10h49.9v-3H252.4z"/>
				</g>
			</g>
			<line class="st3" x1="259.3" y1="420.6" x2="259.3" y2="435.1"/>
			<line class="st3" x1="269.1" y1="420.6" x2="269.1" y2="439.2"/>
			<line class="st3" x1="278.8" y1="420.6" x2="277.8" y2="440.4"/>
		</g>
		<g>
			<path class="st4" d="M252.9,243.2c0,0-9.9,89.3-6.9,117.3c3,28,4.1,60,4.1,60h41.3c0,0,3-34.3-2-60.8l2-40.9l30,101.7h40.3
				c0,0,4.2-35-13.3-65c-7.5-12.9-4.7-68.8-25.3-112.3H252.9z"/>
			<path class="st5" d="M259.3,350.6c0-10.3-5.6-18.7-12.5-18.7c-0.4,0-0.7,0-1.1,0.1c-0.4,11.7-0.5,21.9,0.3,28.6
				c0.3,2.9,0.6,5.8,0.9,8.7C253.8,369.2,259.3,360.9,259.3,350.6z"/>
			<path class="st6" d="M291.4,318.9c0,0-23-20.1-14.5-75.7"/>

				<ellipse transform="matrix(0.9824 -0.1869 0.1869 0.9824 -60.0376 65.9432)" class="st5" cx="319.6" cy="351.3" rx="10.9" ry="18"/>
			<path class="st6" d="M269.1,243.2c0,0-8.5,40.9,7.9,45.1"/>
			<polyline class="st6" points="309.9,243.2 320,282.9 337,288.4 			"/>
			<path class="st6" d="M354.2,420.6c0,0-4.2-41.9-12.9-64.5c-8.7-22.7-11.4-70-11.4-70"/>
			<path class="st6" d="M283.2,420.6l-5.1-59.4c-0.2-2.1-0.2-4.1,0.1-6.2l5.1-47.9"/>
		</g>
		<g>
			<path class="st7" d="M256.5,88.5c-1.4-0.1-2.5,0.7-3.7,0.5c1.3-2,3-4.2,3.6-6.7c0.4-2,0.4-4.3,0-6.4c-0.1-0.6-0.8-2.8-1.8-2.3
				c-0.8,0.4-0.8,3.7-0.8,4.5c-0.3-1.5-0.3-3.1-0.9-4.6c-0.3-0.8-0.9-2.1-1.7-2.5c-1.7-0.8-0.9,3.2-0.7,4c-0.2-0.7-1.4-3.9-2.5-2.1
				c-0.9,1.6,0.5,4.2,0.1,5.8c-0.4-1.1-1.5-4.8-3.2-4.6c-1.2,0.1-0.4,2.4-0.2,3.2c0.3,1,0.7,2.4-0.1,3.2c-0.4,0.4-0.9,0.7-1.3,1.1
				c-0.5,0.5-0.8,1.1-1.2,1.7c-1,1.5-1.6,2.9-1.7,4.7c0,0,0,0,0,0c-2.7,1-22.1,9.1-30,31.6c-8.4,24.3-6.9,31.3,3.8,38.8
				c4.8,3.4,14,10.9,22.6,18.1c2.8-10.2,6.8-24.4,9-32.6l-11.8-6.8c0,0,7.3-33,13.4-42.2c1.2-0.5,2.4-0.5,3.7-1
				c1.8-0.6,3-2.5,4.9-2.9c0.7-0.1,3.7,0.4,3.8-0.6C259.9,89.2,257.2,88.6,256.5,88.5z"/>
			<path class="st8" d="M233.9,137.2c0,0-15,7-24.9,16.9c1.4,1.5,3.1,3,5.2,4.4c4.8,3.4,14,10.9,22.6,18.1c2.8-10.2,6.8-24.4,9-32.6
				L233.9,137.2L233.9,137.2z"/>
			<path class="st9" d="M242.5,90.2c0,0,1.7-5.9,10.2-1.3"/>
			<path class="st9" d="M244.6,80.6c0,0,4.3-0.6,7.5,1.9"/>
		</g>
		<g>
			<path class="st10" d="M334.6,269c0,0-1.9-5.4-4.4-12.5l-3.1,13.4C332.9,266.7,334.6,269,334.6,269z"/>
			<path class="st10" d="M327.9,249.7c-4.1-11.8-8.5-25.1-8.5-27.1c0-3.8,0.8-9.3,0.8-9.3l9.4,23.3l31.4-10.8
				c-2.8-7.1-7.7-19.4-13.4-31.1c-7.8-15.9-19.2-29.7-40.7-32.7l-6.7-1.8l0.8-4.6l-25-2l-0.7,5l-41.4-21.3
				c-14.1,15.6-11.6,22.8-18.9,31.6c10.5,8.8,35.4,22,35.4,22s-1.8,28.1-1.8,48.2c0,11.8-5.2,22-5.2,22s15.6,11.8,30.3,14.3
				l9.6-12.3l3.5,17.5c0,0,20,6.8,32.3-4.5c1.5-1.3,2.8-2.5,4-3.4c1.5-1.1,2.8-2,4-2.7c5.8-3.2,7.5-0.9,7.5-0.9s-1.9-5.4-4.4-12.5
				C329.5,254.4,328.7,252,327.9,249.7z"/>
			<path class="st5" d="M276,153.5c0,0,5.1,4.9,11.4,5.9c0,0,1.5,0.8,13.6-3.9L276,153.5z"/>
			<path class="st11" d="M283.3,263c0,0-7.7-47.7,0-82.1c0,0,3.4-13.7,3.7-21.5"/>
			<path class="st11" d="M250.4,190.7c0,0,1.7-16.5,8.3-27"/>
			<line class="st11" x1="320.2" y1="213.2" x2="323.1" y2="188"/>
			<line class="st11" x1="224.7" y1="175.7" x2="241.8" y2="141.7"/>
			<line class="st11" x1="325.8" y1="227.1" x2="356" y2="213.2"/>

				<rect x="292.2" y="189.2" transform="matrix(0.9974 7.200158e-02 -7.200158e-02 0.9974 14.6083 -21.3071)" class="st11" width="21.3" height="5.5"/>
			<polyline class="st11" points="275.3,158.5 279.9,165.6 287,160.1 292.2,167.1 300.2,160.2 			"/>
		</g>
		<g>
			<path class="st7" d="M361.6,228.5l-1.3-2.6l-26.3,9.1l0.9,1.5l-9.2,39.7l0,0c-1.1,2.1-3.6,2.7-5.8,3.2c-1.2,0.2-2.2,0.5-3,1.5
				c-1.4,1.4-1.2,3.4-2.3,5c-0.5,0.8-2.2,2.9,0.2,2.3c1.2-0.3,2.4-1.8,3.2-2.7c1.6-1.8,3.2-2.1,5.4-1.7c2.2,0.4,4.5,1.1,6.7,1.6
				c1.5,0.4,2.9,1.2,4.4,1.5c0.8-1.8,1.4-3.6,1.8-5.5c1-0.7,20.7-13.7,26.6-44.1C363.4,234.4,363,231.2,361.6,228.5z"/>
			<path class="st8" d="M361.6,228.5l-1.3-2.6l-26.3,9.1l0.9,1.4l27.7-5.5C362.3,230.1,362,229.3,361.6,228.5z"/>
		</g>
		<g>
			<path class="st7" d="M282.3,142.5l-1.8,14.4c0,0,2.9,2,6.5,2.5c2,0.3,2.7,0.1,6.4-1.2v-14.7L282.3,142.5z"/>
			<path class="st8" d="M282.3,142.5l-0.8,6.3c2.4,5.2,11.9,5.5,11.9,5.5v-10.7L282.3,142.5z"/>
			<g>
				<path class="st8" d="M282.2,132.8c0,0-4.1-8-6.4-3.5c-2,3.7,1.9,7.8,6,6.9L282.2,132.8z"/>
				<path class="st8" d="M293.8,133.5c0,0,5.6-7,7-2.1c1.2,4-3.5,7.2-7.3,5.5L293.8,133.5z"/>
				<path class="st2" d="M279.2,134.5c-1.5-1.1-2-3.4-2.2-5.1c-0.1-0.8-0.3-1.7-0.3-2.5c0-0.7,0.6-1.6,0.6-2.2
					c-2.1-0.3-1.4-3.4-0.7-4.6c1.5-2.3,3.5-3.9,6.3-4.4c1.5-0.3,3,0.1,4.5,0.3c-0.5-0.4-0.8-0.9-0.8-1.6c0.4,1.4,3.9,1.2,5,1.4
					c2.3,0.4,3.5,1.6,4.5,3.5c1.3-0.9,4,0.3,4.5,1.5c0.8,1.9,0.1,4.1-0.3,6.1c-0.5,2.3-0.1,5.5-1.5,7.5c-1.6,2.3-6.4,1.2-8.6,0.9
					c-2.6-0.3-5.3-1-7.9-0.8C281.6,134.5,280.2,134.4,279.2,134.5z"/>
				<path class="st7" d="M298,127.8c0-1.1-0.9-1.9-2-1.8c-0.9,0.1-1.9,0.3-2.6,0.5c-0.5,0.1-1.2,0.6-1.6,0.7
					c-0.7,0.1-1.8-0.7-2.5-0.9c0.2,0.2,0.3,0.6,0.4,0.8c-2.8-0.7-5.8-1.4-8.7-2c-1-0.2-2,0.5-2.1,1.6c-0.2,2.1-0.3,5.1-0.3,5.5
					c0.8,12.5,1.2,14.1,8.7,15.3c7.5,1.2,9.5-7.5,9.9-11.3c0.1-0.8,0.1-1.9,0.4-3.4c0.1-0.3,0.1-0.7,0.1-1
					C297.8,130.9,297.9,129.1,298,127.8z"/>
				<path class="st2" d="M278.6,133.7c0.3,0.3,0.1,1.9,0,2.4c-0.2,1.1-0.6,2.1-1,3.1c-0.9,2.4-1,5,0.6,7.1c2.3,3.2,7.7,3.9,11.3,3.2
					c1.8-0.4,3.9-0.9,5.2-2.2c1.2-1.2,1.8-2.9,2.2-4.5c0.6-2.4,1-5.5,0.4-7.9c-0.7,1.4-1,4.8-3,5.2c-1.9,0.4-2.1-1.5-3.3-2.3
					c-1.3-0.9-3.6-1-5.1-1c-1.2,0-2.3,0.3-3.3,1c-0.6,0.4-1.1,1.1-1.9,0.7C279.3,137.9,279.5,135.1,278.6,133.7z"/>
			</g>
			<circle class="st2" cx="284.9" cy="132.3" r="1"/>
			<circle class="st2" cx="291.3" cy="132.8" r="1"/>
			<g>
				<path class="st7" d="M286.8,130.9c0.3,0.6,0.1,1.3,0.1,1.9c-0.2,1.3-0.5,2.5-0.8,3.8c-0.2,0.9-0.9,2.4-0.5,3.3
					c0.1,0.4,0.6,0.7,1,0.7c1,0.1,1.6-1,1.9-1.8l0.4-0.9c0.4-0.9,0.5-2,0.3-3l-0.7-4.1H286.8z"/>
				<path class="st12" d="M286.8,130.9c0.3,0.6,0.1,1.3,0.1,1.9c-0.2,1.3-0.5,2.5-0.8,3.8c-0.2,0.9-0.9,2.4-0.5,3.3
					c0.1,0.4,0.6,0.7,1,0.7c1,0.1,1.6-1,1.9-1.8"/>
			</g>
			<path class="st0" d="M285,141.5c0.7,0.6,1.9,0.6,2.7,0.5c0.9-0.2,1.4-0.8,2.1-1.3c-0.2,1.4-0.5,2.6-2.1,3c-0.9,0.2-2.1,0-2.8-0.7
				C285.1,142.7,285.1,141.9,285,141.5z"/>
			<path class="st13" d="M283.2,129.4c0.4-0.8,2-0.7,2.4-0.2"/>
			<path class="st13" d="M290.2,129.8c0.3-0.3,0.9-0.5,1.5-0.4c0.3,0.1,1.1,0.4,1.1,0.7"/>
		</g>
	</g>
	<g>
		<g>
			<g>
				<path class="st4" d="M43.6,420.1l-5.3,14.8c0,0-20,6.3-19.8,13.5s40.5-1.3,40.5-1.3l8.5-27H43.6z"/>
				<path class="st14" d="M48.1,438.1c3.8,3.6,8.5-1.3,14.3-1.2l5.3-16.8h-24l-5.3,14.8C38.4,434.8,43.1,433.4,48.1,438.1z"/>
				<path class="st15" d="M26.7,439.4c0,0,6.3-0.4,10.2,4.7"/>
				<path class="st15" d="M30.5,437.9c0,0,4.9-2.9,9.1,4.5"/>
				<path class="st15" d="M35,436c0,0,5.7-3.2,7.3,5.1"/>
			</g>
			<g>
				<path class="st4" d="M167.8,419l1.3,15.6c0,0,17.8,11.1,15.7,18.1c-2.1,6.9-38.9-11.5-38.9-11.5l-1.4-28.3L167.8,419z"/>
				<path class="st14" d="M159,435.3c-4.6,2.5-7.9-3.4-13.5-4.8l-0.9-17.5l23.2,6.1l1.3,15.6C169.2,434.6,164.9,432,159,435.3z"/>
				<path class="st15" d="M179.3,442c0,0-6-2-11,1.9"/>
				<path class="st15" d="M176.1,439.6c0,0-4-4-10,2.1"/>
				<path class="st15" d="M172.1,436.6c0,0-4.7-4.5-8.3,3"/>
			</g>
			<g>
				<path class="st2" d="M89.4,219.1c0,0-6.5,26.5-23.5,69s-27,138-27,138h37.7l47.8-115l16.9,112.5l31.4-2.5
					c0,0,18.1-90.5,5.2-138.5c-9.1-34-17-59-17-59L89.4,219.1z"/>
				<path class="st15" d="M124.4,311.1c0,0,10.6-37.2,9.5-74.4"/>
				<line class="st15" x1="40.2" y1="414.3" x2="81.4" y2="414.3"/>
				<line class="st15" x1="139.3" y1="410.2" x2="174.2" y2="412.9"/>
			</g>
			<path class="st15" d="M79.4,251.7c0,0,17.6-1.1,23.9-21.9"/>
			<path class="st15" d="M153,233.6c0,0,2,17,16.7,19.4"/>
			<path class="st15" d="M132.4,268.2c0,0,7.4-1.2,8.3-5.8c0.8-4.7,0.7-26.3,0.7-26.3"/>
		</g>
		<path class="st14" d="M88.5,222.6c0,0,18.6,11.3,38.3,13.6c19.7,2.3,36.1-6.4,36.1-6.4l-11.2-73c0,0-16.2-6.3-27.3-8.5
			c-11.2-2.2-27.9-2.1-27.9-2.1S91.7,208.4,88.5,222.6z"/>
		<g>
			<g>
				<path class="st7" d="M208.7,120.9c0.3-2.1,0.7-5,1.8-6.9c0.4-0.8,1.1-1.2,1.8-1.7c1-0.8,1.7-2.2,2.2-3.4
					c0.5-1.3,0.9-2.6,1.5-3.9c0.3-0.6,0.9-1.5,0.9-2.1c0-1.1-0.9-1-1.6-0.4c-0.9,0.9-0.9,2.7-1.9,3.5c-0.3,0.2-0.8,0.5-1.1,0.2
					c-0.3-0.4,0.4-1.3,0.6-1.7c0.3-0.5,3-5.7,0.4-5.2c-1,0.2-1.6,2.6-1.9,3.5c-0.3,0.8-0.8,3.1-1.9,3.1c-1.8,0.1,2-6.8-0.2-7.6
					c-1.5-0.6-1.9,2.3-2.1,3.2c-0.1,0.6-0.5,3.3-1.2,3.3c-1.1,0.1,0.5-5.7-0.9-6.6c-1.8-1.1-1.6,3-1.7,3.8c-0.2,1.4-0.5,2.8-0.9,4.3
					c-0.1,0.4-0.1,1.3-0.6,1.5c-1,0.4-1.4-2.2-1.7-2.8c-0.3-0.7-0.5-2.1-1.3-2.4c-1-0.4-1.2,0.7-1.1,1.4c0.2,1.5,0.7,2.9,0.6,4.5
					c-0.1,1.6-0.1,2.9,1.2,4c0.5,0.5,1.3,0.6,1.7,1.2c0.7,1.1,0.7,3,0.7,4.3c0,1.3-0.1,2.6,0,3.8c2.3,0.1,4.4,0,6.6-0.7
					C208.4,121.2,208.4,121.3,208.7,120.9z"/>
				<path class="st9" d="M206.4,112.3c0,0-0.9-3.1-4.6-4.6"/>
				<line class="st9" x1="212.9" y1="107.8" x2="203.9" y2="105.2"/>
			</g>
			<path class="st5" d="M143.9,229.3v10c0,0,5.5,4.5,13.3,3.8s11-1.5,11-1.5l-1.8-12.2H143.9z"/>
			<path class="st5" d="M198.9,123l1.1-9.3c0,0,5.9-0.4,11.8,2.8l-3,9.1L198.9,123z"/>
			<path class="st4" d="M130.6,150.1c0,0,6,3.4,6,15.1s-1.8,63.1,8.5,67.6s25.5,4.7,25-4.6s-7.3-17.5-7.5-25.5s-1.7-16.9-1.7-16.9
				s29.5-0.1,43.2-0.9c3-0.2,5.7-1.7,7.4-4.1c1.9-2.8,4-7,3.4-11.8c-0.9-7.6-5-28.9-3-40.5c0.4-2.7-1.2-5.3-3.8-6.1l-7.1-2.3
				c-3-1-6.1,0.7-7,3.6l-8.8,28.6c0,0-10.8,0.2-19.8-2.1c-11.8-3-24-0.3-24-0.3s5-2,5-4.8c0-2.8-15.8-3.5-15.8-3.5V150.1z"/>
			<path class="st6" d="M138.5,154.8c0,0-0.7-3,2.8-5.1"/>
			<path class="st6" d="M185.1,152.2c0,0,8.8,1,11.5,9.5"/>
			<path class="st16" d="M156,202.7c0,0,9,7.7,11.3,15"/>
		</g>
		<g>
			<path class="st8" d="M136.1,129c0,0,2.3-3,4-2c1.8,1,0.3,6.4-2.6,6.5L136.1,129z"/>
			<path class="st7" d="M117,133.4l-2.1,14.9c0,0,2.3,8.9,13.1,10.6c0,0,3.6,0.4,3.9-7.5c0,0-1.5-12.8-1-16.3L117,133.4z"/>
			<path class="st8" d="M131.8,150.3c-0.3-2.4-0.9-8.4-1-12.3l-13.7-1.2C117.1,147.3,127.8,150.3,131.8,150.3z"/>
			<path class="st7" d="M138.2,131.7c-0.8-6.7,3-17.3-9.7-19.2c0,0-10.5-1.8-12.2,6.3c-0.4,2.1-0.8,5-0.8,8.1
				c-1-0.8-2.3-1.2-3.8-0.3c-2.9,1.8,0.6,8.1,4.6,7.5c1.2,5,3.8,9.5,9.2,10.8C136.7,147.9,139.1,138.4,138.2,131.7z"/>
			<g>
				<circle class="st2" cx="127.9" cy="127.9" r="1.1"/>
				<path class="st13" d="M125.9,124.9c0.6-0.6,2.3-0.9,3.4-0.1"/>
				<circle class="st2" cx="135.6" cy="128.3" r="1.1"/>
				<path class="st13" d="M137.2,125.4c-0.5-0.6-2.3-1-3.4-0.3"/>
				<path class="st9" d="M132.5,127.2c-0.7,1.1,0.7,3.9,1.1,5c0.3,0.8,0.7,2.1,0.3,2.9c-0.6,1.1-1.5,0-1.9-0.7"/>
				<g>
					<path class="st2" d="M133.4,137.1c-1.9,0.3-3.6-0.2-5.4-0.8c-1-0.4-1.9-0.7-2.5-1.5c-0.3,0.8,0,2.3,0.3,3.1
						c0.6,1.6,2.1,2.7,3.8,2.6c1.6-0.1,3.4-1.4,3.7-3C133.3,137.4,133.4,137.4,133.4,137.1z"/>
					<path class="st0" d="M131.4,138.2c0.2-0.2,0.2-0.8,0.3-1c0,0,0,0,0,0c-1.3-0.1-2.5-0.4-3.7-0.9c-1-0.4-1.9-0.7-2.5-1.5
						c-0.1,0.4-0.2,1-0.1,1.6c1.4,1,3,1.7,4.7,2C130.5,138.4,131.2,138.6,131.4,138.2z"/>
				</g>
			</g>
			<path class="st2" d="M134.9,110.8c-1.3-1-3-1.2-4.6-1.7c-1.1-0.3-2.4-0.7-3.6-0.5c-1,0.2-2.1,0.5-3.1,0.6
				c0.5,0.1,1.1,0.3,1.6,0.5c-2.3,0.2-4.3,0.2-6.2,1.9c-0.9,0.8-1.7,2.3-2.8,2.7c0.4,0.4,1.1,0.8,1.6,1.3c0,0,0,0,0.1,0
				c-0.7,0.9-1.2,1.9-1.5,3.3c-0.4,2.1-0.8,5-0.8,8.1c-0.1,0,1,0.5,1.8,2c0.5,0.8,1,1.8,1.6,2.5c0-2.3-0.5-4.5,0.5-6.7
				c0.5-1.2,1.2-2.4,1.3-3.8c0-1.4-0.3-2.8-0.1-4.2c0.1-0.6,0.2-1.1,0.4-1.6c0.4,0,0.8,0.1,1.1,0.2c1.5,0.3,2.8,1.1,4.1,1.8
				c2.2,1.1,4.7,1.7,7.2,1.8c1.3,0,3.2-0.2,3.6-1.6C137.7,115,136.6,112.1,134.9,110.8z"/>
		</g>
		<g>
			<g>
				<path class="st7" d="M61,77.9c0.4-2.1,0.9-5,0.5-7.1c-0.2-0.9-0.7-1.5-1.1-2.2c-0.7-1.1-0.9-2.6-0.9-3.9c-0.1-1.4,0-2.8-0.2-4.2
					c-0.1-0.6-0.3-1.7-0.1-2.3c0.3-1,1.2-0.6,1.6,0.2c0.6,1.2,0,2.9,0.7,3.9c0.2,0.3,0.6,0.7,1,0.5c0.4-0.3,0-1.3,0-1.8
					c-0.1-0.6-1-6.4,1.3-5.1c0.9,0.5,0.6,3,0.7,3.9c0,0.8-0.3,3.2,0.7,3.6c1.7,0.7,0.3-7,2.7-7.1c1.7-0.1,1,2.8,1,3.7
					c0,0.6-0.6,3.2,0.1,3.5c1,0.4,1.3-5.6,3-6c2.1-0.5,0.5,3.4,0.4,4.1c-0.3,1.4-0.4,2.9-0.6,4.3c0,0.4-0.3,1.3,0.1,1.6
					c0.8,0.7,2.1-1.6,2.5-2.1c0.5-0.6,1.2-1.8,2-1.8c1.1,0,0.9,1,0.6,1.7c-0.7,1.4-1.6,2.6-2,4.1c-0.4,1.5-0.9,2.8-2.4,3.4
					c-0.7,0.3-1.4,0.1-2,0.6c-1,0.9-1.6,2.7-2,3.8c-0.4,1.2-0.7,2.5-1.2,3.6c-2.2-0.6-4.2-1.4-6-2.7C61.2,78.4,61.2,78.5,61,77.9z"
					/>
				<path class="st9" d="M66,70.6c0,0,1.8-2.7,5.8-2.9"/>
				<line class="st9" x1="61.2" y1="64.2" x2="70.6" y2="64.6"/>
			</g>
			<path class="st5" d="M57.9,82.8V72.7c0,0,3.8-2.5,14,2.3l-2.3,11.9L57.9,82.8z"/>
			<path class="st5" d="M80.2,223.6l-3.7,8c0,0,4.8,5.8,13.2,6.3c12.7,0.8,20,2.2,20,2.2l3.5-11.5L80.2,223.6z"/>
			<path class="st4" d="M118.4,149.2c3.4-5.4-0.5-11.5-5.7-12.4c-6.3-1.1-10-3.4-10-3.4l0.9,5.9c-1.8-0.5-3.8-0.9-6-1.3
				c-13.5-2-27.3-15.1-27.3-15.1s2.3-15.7,1.5-25.7c-0.3-4.5-0.3-7.8-0.1-10c0.2-2.4-1.2-4.7-3.5-5.6l-7.4-2.9
				c-3.2-1.3-6.9,0.8-7.4,4.2c-0.6,3.5-1.5,7.5-2.8,10.3c-2.4,5.1-15.7,29-15.5,48.8c0,4.3,2.4,8.2,6.1,10.3c5.2,2.8,13.3,7,20.9,10
				c16.8,6.5,28,18,28,18s-1.5,22.8-11.2,35.3c-7.3,9.4,5.8,14.4,11,15.5c7.5,1.6,24,6.3,27.2-5
				C120.3,215.3,127.2,173.1,118.4,149.2z"/>
			<path class="st6" d="M103.6,139.3c0,0,7.8,3.4,10.4,9.7"/>
			<line class="st6" x1="70.4" y1="123" x2="68.7" y2="138.4"/>
			<path class="st16" d="M86.9,214.9c0,0,5.2-12.7,12-17.5"/>
		</g>
	</g>
	<g>
		<g>
			<path class="st17" d="M146.8,184.2c0,0,2-7.3,1.9-8.2c-0.2-1.6-2.9-3.6-4-4.8c-1.2-1.4-2-3.1-3.3-4.4c-0.5-0.6-4.3-3.7-2.8-4.5
				c1.4-0.7,3.9,3.1,5.4,3.5c-1.3-1.3-3.8-4.6-3.6-6.9c0.1-0.6,0.8-0.8,1.2-0.4c0.9,1,2.2,2.6,2.7,3.5c-0.5-0.9-3.4-5.7-1.5-6.2
				c1.3-0.3,3.9,6.8,6,7.2c0.3-2-1.6-6.7-0.3-7.5c1.9-1.2,2.1,3.1,2.3,4.1c0.5,2.2,1.6,5,3.4,6.4c-0.4-3,2-6.9,3-4.8
				c0.3,0.5-0.5,2.3-0.4,3c0.1,1.6,0.8,3.1,0.8,4.7c0.1,2.9-1.4,4.5-2.3,6.9c-1.1,2.9-1.3,9.1-1.3,9.1L146.8,184.2z"/>
			<path class="st9" d="M152.4,172.3c-1.2-1.6,0.8-5,1.3-6.3"/>
			<path class="st9" d="M145.3,168.2c0.6-1.2,1.7-2,2.7-2.9c0.9-0.8,2.7-2.6,3.7-2.7"/>
		</g>
		<g>
			<path class="st18" d="M256.5,149.1c0-0.4-0.4-0.7-0.5-1c-0.5-0.8-0.6-1.7-0.7-2.7c-0.1-1.1-0.1-2.2,0-3.2c0-0.2,0.1-1.2,0.4-1.3
				c0.7-0.4,0.9,2.9,0.9,3.3c-0.2-0.7-0.1-1.8,0-2.5c0.2-0.8,0.5-0.6,0.6,0c0.3,1.4,0.5,2.8,0.8,4.2c-0.2-0.5-0.2-1.2-0.1-1.7
				c0-0.4-0.1-1.3,0.4-1.6c0.6-0.4,0.7,0.8,0.7,1.1c0.3,1.5,0.8,3,1.7,4.3c0.5,0.7,1.1,1.2,1.4,2c0.2,0.8,0.3,1.6,0.4,2.4
				c-0.5-0.1-1.1-0.5-1.7-0.6c-1-0.3-1.9-0.6-2.8-1.2c-0.4-0.3-0.8-0.5-1.1-0.9C256.8,149.5,256.7,149.2,256.5,149.1z"/>
			<path class="st17" d="M264.6,161.4c-0.5-2.1-3.1-5.6-5.1-7.2c-3.4-2.8-6.1-3.6-6.6-8.5c-0.1-0.9,0-1.9-0.1-2.9
				c-0.1-0.8-0.6-1.6-0.5-2.5c1.9-0.5,2.4,4,3.2,5.1c1,1.5,3,3.5,4.6,4.4c0.1,0.1,0.1,0.1,0,0c-1-1.1-2.6-4.2-1-5.4
				c0.9,1.5,0.8,2.1,2.7,2.9c1.1,0.5,2.7,0.6,4.5,2.3c1.3,1.3,1.3,4,2.2,5.6c1,1.8,2.2,4.2,3.2,6H264.6z"/>
		</g>
		<g>
			<path class="st17" d="M136.3,410.9l-7.3,27c0,0-9.8,2.7-18.2,5.5c-3,1-2.3,5.5,0.9,5.5h29.1c1.3,0,2.5-0.8,2.9-2.1l12-35.9H136.3
				z"/>
			<polygon class="st18" points="134.6,417.4 153,419 155.7,410.9 136.3,410.9 			"/>
			<path class="st2" d="M122.9,439.6c-3.5,1-8,2.4-12.1,3.8c-3,1-2.3,5.5,0.9,5.5h29.1c1.3,0,2.5-0.8,2.9-2.1l1.7-5
				C130.2,446.6,124.5,441.6,122.9,439.6z"/>
			<path class="st3" d="M136,443.7"/>
			<path class="st3" d="M142.6,419.3"/>
		</g>
		<g>
			<path class="st17" d="M216.5,410.9l-5.7,27c0,0,9.8,2.7,18.2,5.5c3,1,2.3,5.5-0.9,5.5H199c-1.3,0-2.5-0.8-2.9-2.1l1-35.9H216.5z"
				/>
			<polygon class="st18" points="197,416.9 215.3,416.4 216.5,410.9 197.2,410.9 			"/>
			<path class="st2" d="M216.9,439.6c3.5,1,8,2.4,12.1,3.8c3,1,2.3,5.5-0.9,5.5H199c-1.3,0-2.5-0.8-2.9-2.1l0.2-5.8
				C211.4,445.8,215.3,441.6,216.9,439.6z"/>
		</g>
		<path class="st19" d="M166.5,274.5l74.8,0.1c0,0-1.9-18.3-2.9-29.1c-1-10.8-1.4-18.9-1.4-18.9l-59.4,0.8
			C177.7,227.4,182,250.6,166.5,274.5z"/>
		<g>
			<path class="st5" d="M227.9,248.5l-13.4-1.1l-30.4-2.6c0,0-8.3,8.2-17.6,36.5c-9.3,28.3-26,94.9-35.9,134.5h30.9l40.3-107.3
				l-13.6,104.8H220c0,0,8.1-83,14.8-114C240.5,273.3,227.9,248.5,227.9,248.5z"/>
			<path class="st13" d="M201.9,308.5c0,0,17.4-27.9,15.8-57.2"/>
			<path class="st13" d="M217.2,264c0,0,6-1.9,5.2-13.5"/>
			<line class="st13" x1="133.3" y1="404.9" x2="165.1" y2="406.1"/>
			<line class="st13" x1="189.5" y1="403.7" x2="220.5" y2="402.9"/>
		</g>
		<path class="st18" d="M184.1,244.7c0,0,30.9,11.7,43.8,3.8c0,0,10.4-33.4,7.7-40.5c-3.3-8.7-6.6-19.3-17-20.8c0,0-22.2-4-27.7,1.5
			s-9.3,14.5-4.8,30.8S184.1,244.7,184.1,244.7z"/>
		<g>
			<path class="st1" d="M216.6,186.9c0,0,16,21.1,15,45.3s-5.3,56-5.3,56s10.5-2,15.3-11.3c0,0-6-54.2-4.5-62.2c0,0,48.8,8.6,55,2.2
				c6.3-6.4,6.3-19-0.8-29.5s-18-31.5-18-31.5l-11.5,1.6l8.9,34.7c0,0-21.1-1-30.6-3S227.9,184.4,216.6,186.9z"/>
			<path class="st15" d="M272.3,199.4l-1.6-7.2c0,0,7.3,3.3,9.8,8.3"/>
			<line class="st15" x1="237.1" y1="214.8" x2="238.3" y2="202.5"/>
		</g>
		<g>
			<path class="st17" d="M205.4,171.2l-2.7,17.8c0,0,5.4,9.1,9.8,9.3c2,0.1,3.6-4.5,4.5-7.7l0.6-17.1L205.4,171.2z"/>
			<path class="st18" d="M205.8,175.6c0,0-2.2,13.2,11.2,14.9l0.4-13.3L205.8,175.6z"/>
			<path class="st17" d="M218.5,154.9c-5.1-0.8-10.3,4.3-12.2,11.8c-0.2-0.5-0.7-2.5-3.2-1.7c-1.8,0.5-2.3,6.9,2.4,7.6
				c0,6.9,3.1,12.6,7.8,13.3c5.5,0.9,11.2-5.3,12.6-13.9C227.4,163.6,224.1,155.9,218.5,154.9z"/>
			<g>
				<circle class="st2" cx="214.9" cy="170.5" r="0.8"/>
				<circle class="st2" cx="222" cy="172.6" r="0.8"/>
				<path class="st13" d="M213.2,167.1c0,0,2.3-1.8,4.2,0.3"/>
				<path class="st13" d="M221.6,168.7c0,0,2.3-0.7,2.9,1.8"/>
				<path class="st9" d="M219.9,168.9c-1.2,1.8-0.5,3.8-0.8,5.8c-0.1,0.6-0.5,1.8-1.2,1.8c-0.3,0-0.6-0.2-0.8-0.4
					c-0.1-0.1-0.3-0.5-0.3-0.5"/>
				<path class="st9" d="M213.2,177.7c0.5,0.5,1,0.9,1.6,1.2c0.9,0.5,1.8,0.8,2.9,0.9"/>
			</g>
			<path class="st2" d="M204.3,165.4c0,0,0.1,1.3,0.6,2.3c0.5,1,1.5,2.2,1.5,2.2l2.9-8c0.7-1.4,1.9-2.4,3.3-2.8
				c1.5-0.5,3.5-0.9,5.6-0.8c1.3,0,2.5,0.5,3.5,1.3c1.3,1,3.1,2.7,4.2,4.9c0,0,0.7,4.4-0.2,9c0,0,1.7-0.6,2-2.9
				c0.3-2.3,0.3-7.2-0.4-9.4c-0.5-1.8-1.5-6.3-9.5-7.3c-2.4-0.3-4.5,0.1-6.2,0.7c-2.3,0.8-4.1,2.6-4.9,4.9L204.3,165.4z"/>
		</g>
		<g>
			<path class="st1" d="M203.2,186.1c0,0-12-0.8-19,4.4c-7,5.2-30.7,20.1-30.7,20.1l3.1-31.4h-11.4c0,0-21.4,34-19.4,66.5
				c0,0,5,4.8,12,0s39.7-21.8,39.7-21.8s0.7,12.8,0,18.8c-0.7,6-11,31.8-11,31.8s10,15,30,18.3c0,0,1.9-44.2,7.8-58.7
				C211.5,216.6,203.2,186.1,203.2,186.1z"/>
			<g>
				<path class="st15" d="M202.7,214.8l-0.4,4.4c0,0-4.9-0.1-6.9,1.7c-0.8,0.7-1.6,1.3-2.3,1.7c-1,0.6-2.1,0.5-3-0.2l0,0
					c-1.8-1.5-3.7-2.7-5.8-3.6l-1.7-0.7l0.4-4.6L202.7,214.8z"/>

					<ellipse transform="matrix(9.399768e-02 -0.9956 0.9956 9.399768e-02 -43.7919 388.5789)" class="st19" cx="191.6" cy="218.4" rx="1" ry="1"/>
				<path class="st15" d="M182.9,218.2l-0.6,10.6c-0.1,2.2,1.2,4.3,3.3,5.2l3.9,1.5c1.3,0.5,2.8,0.6,4.2,0.1l3.5-1.2
					c1.9-0.7,3.2-2.3,3.5-4.3l1.2-10.9"/>
			</g>
			<path class="st15" d="M153.4,210.6c0,0,0.1,5.4-4.2,13.1"/>
		</g>
		<path class="st2" d="M202.3,170.1c-0.5,0.1-0.7,2.8-1.1,3.5c-1.8,3.1-4.7,5.6-7.2,8.2c-4.2,4.3-9.3,8.6-11.1,14.5
			c-3,9.6,2.3,17.5,9.5,23.4c2.7,2.2,7,5,7.1,9c1.4-2.7,3.6-5.3,4.8-8.3c1.4-3.3,1.3-6.8,1.6-10.3c0.6,0.6,1.2,1.5,1.7,2.1
			c0.3-2.9,1-5.7,0.7-8.7c-0.3-2.9-1.3-5.6-2.5-8.2c-0.9-2-1.8-4.3-2.3-6.5c-0.4-1.9-0.1-4.2,0.2-6.1c0.6-3.4,1.2-6.9,1.8-10.3
			C204.3,172.2,202.9,171.7,202.3,170.1z"/>
	</g>
	<g>
		<g>
			<g>
				<path class="st8" d="M359.1,418.5l-2.9,30.5l29.1,1.8c2,0.1,2.9-2.4,1.3-3.6l-13.7-9.9l5.2-20.8L359.1,418.5z"/>
				<polygon class="st20" points="378.1,416.4 359.1,418.5 358.6,423.5 376,424.6 				"/>
				<path class="st2" d="M380,442.4c-2.1,5.2-17.6,0.8-23.1-1l-0.7,7.6l29.1,1.8c2,0.1,2.9-2.4,1.3-3.6L380,442.4z"/>
			</g>
			<path class="st21" d="M378.5,252l10.1-1.1c0,0,21,57.8-9,169.1H354c0,0,5-18.9,1.8-37.3c-3.2-18.4,6.1-43.3,6.1-43.3
				S329.6,284,347.5,252H378.5z"/>
			<g>
				<path class="st8" d="M346,391.4l-16.2,32.8l28.7,13c1.8,0.8,3.6-1.2,2.5-2.9l-10.1-15.4l13.1-18.8L346,391.4z"/>
				<polygon class="st20" points="340.7,402.1 359.8,406.1 364,400.1 346,391.4 				"/>
				<path class="st2" d="M356,426.7c-4.1,4.4-17.8-5.9-22.6-9.7l-3.6,7.2l28.7,13c1.8,0.8,3.6-1.2,2.5-2.9L356,426.7z"/>
			</g>
			<g>
				<path class="st10" d="M344.2,252c0,0-19.4,27.7-8.7,47.2c10.8,19.5,36,39.5,36,39.5s-19,6.5-22.2,30.5s-8.7,27.7-8.7,27.7
					l24.2,6.8c0,0,47.2-49,46.6-63.5c-0.6-14.5-32.9-88.2-32.9-88.2H344.2z"/>
				<line class="st11" x1="344.1" y1="391.1" x2="371.9" y2="396.1"/>
				<path class="st11" d="M355.8,393.2l30.6-54.5c0,0-50.6-41.1-34.6-73.7"/>
				<path class="st11" d="M349.4,286.1c0,0,11.1-1.9,10.7-20.3"/>
			</g>
		</g>
		<path class="st2" d="M341.8,150.2c-9.6,0.9-6.2,8.1-9.5,10.9c-1.5,1.3-3.2,2.6-3.4,4.6c-0.3,2.1,0.8,4-0.8,5.8
			c-1.3,1.5-3,1.8-3.6,3.9c-0.6,2.1,0.6,3.9-0.2,5.9c-0.8,1.9-2.2,2.9-2.5,5.1c-0.3,1.9-1.1,5.9,0.2,7.5c2.9,3.4,8.2,5.5,13.6,4.8
			c5.6-0.7,14.7-4.1,20.3-3.8c9,0.4,19.6,3.9,26.3-5c1.1-1.4,1.7-2.8,1.7-4.5c0-2.2-1.5-3.3-1.8-5.2c-0.4-2.4,2-4.8,1.8-7.4
			c-0.1-2.8-2.2-4.8-4.9-5.9c-1.7-0.8-4.9-1.2-5.8-3c-1.1-2.2,0.8-4.5-1.1-6.6c-1.9-2-4.5-1.3-6.9-2.1c-2.5-0.8-2.2-2-2.9-3.8
			c-1.1-2.8-4-2.1-6.6-3.4c-2.7-1.3-7.8-2.7-9.5,0.1C345,150.3,342.9,150,341.8,150.2z"/>
		<g>
			<path class="st8" d="M394.3,146.1c-2.8-3-6-6-7.1-6.2c-2.2-0.2-5.4,0.2-7.4-0.7c-0.1-1.6,0.2-3.3,0.1-5c0-1.4-0.6-2.7-0.7-4
				c-0.1-1.8,0.9-0.8,2-1.5c1.2-0.8,1.9-2.1,3.1-2.9c2.3-1.7,5.4,0.1,7.3,1.8c1.3,1.1,0.2,2.2,0.8,3.6c0.5,1,1.9,0.8,2.5,2
				c0.4,0.7,0.1,1.4,0.3,2.1c0.1,0.5,3,3.4,5.7,6.6L394.3,146.1z"/>
			<path class="st22" d="M380.8,133c2-0.4,3.6-2.1,5.3-3.1c1.6-1,1.6,1,1.2,2.2c-0.3,0.8-0.9,1.6-1.7,2c2.1-0.5,5.8-0.1,5.6,2.8"/>
			<path class="st22" d="M388.2,133.5c1.7-1.3,3.8-2.4,4.8-4.4"/>
		</g>
		<g>
			<path class="st14" d="M421.3,149.8c-7-2.8-11.3-5.3-13.6-7c-1.2-0.9-2.7-1.2-4.2-0.9l-2.7-4.1l-10.6,7.2l3.6,3
				c-0.6,1.2-0.7,2.7-0.2,4l0.5,1.3c1.6,14.9,11.1,22.5,11.1,22.5L362,189.9l-10.9,0.2c0,0-18.3,1-26.1,12.1
				c-7.9,11.1-19.9,22.1-19.9,22.1s-8.8-7.5-17-6.6c-1,0.1-2,0.5-3,1.1c-3.2-0.3-6.6,1.4-8.6,4.6c-2.6,4.1-1.9,9.2,1.4,11.8
				c0.1,3.7,1.2,7.4,3.7,10.4c8,9.6,31.5,19.1,42.3,14.1s17.2-20.5,17.2-20.5s3.7,9.5,0,15.8c-3.7,6.3,15,12,31,10.8
				s21.3-8.2,17.5-14.8c-7.9-13.6,8.5-28.5,5.8-39.9c14-5.5,35-14.8,41.8-23.2C447.7,174.9,435.3,155.3,421.3,149.8z"/>
			<path class="st23" d="M395.6,212.4c-0.2-1.7-0.7-3.3-1.7-4.8c-3.7-5.5-9.3-8.8-16.8-13.4"/>
			<path class="st23" d="M341,239.1c0,0,1.6-15.6-1.7-20.8"/>
			<path class="st23" d="M305.1,224.3c0,0,10.1,4.3,12.8,13.5"/>
			<path class="st23" d="M405.2,175.9c0,0,9.6,1.1,12.4,4.5"/>
		</g>
		<g>
			<path class="st8" d="M280.4,232.4c-2.7-1.8-10.8-6.4-10.8-6.4c-1.8-0.4-4.3-0.6-6-1.5c-2.4-1.4-0.9-5.3,0.1-7.2
				c1.2-2.2,0.3-2.9,0-5.1c-0.4-2.8,1.3-3.1,3.5-2.6c1.7,0.4,1.3-0.3,2.7-1c0.9-0.4,1.3,0,2.2,0.5c0.9,0.6,1.7,1.4,2.6,2.1
				c1.1,0.8,2.3,1.2,2.8,2.4c0.7,1.6,0.4,3.5,0.9,5.2c0.9,3,7,7.1,7,7.1C287.1,230.3,283.4,233.5,280.4,232.4z"/>
			<path class="st22" d="M268.6,209.4c0,0.3-0.3,0.9-0.4,1.3c-0.2,0.6-0.3,1.2-0.5,1.8c-0.3,0.9-0.6,2-0.3,2.9
				c0.3,0.7,1.5,1.6,2.1,0.6c0.4-0.8,0.5-1.8,1-2.6c-0.3,1.2-0.5,2.8,0,4c0.6,1.5,2.4,2.7,4,2.8"/>
			<path class="st22" d="M270.8,217.9c0.2,0.2,0.1,0.7,0.1,1c0,0.7,0,1.4-0.1,2c-0.2,1.3-0.9,3.3-2.5,3.3"/>
		</g>
		<g>
			<path class="st24" d="M360.2,173c2.8-1.4,6.4-0.7,8.4,1.9c2.3,3,1.8,7.3-1.2,9.6c-3,2.3-7.3,1.8-9.6-1.2
				c-2.1-2.7-1.8-6.4,0.4-8.8"/>
			<path class="st8" d="M361.8,192.3l-2.7-15.8l-11.6-0.6l1.6,15.9c-1.6,0.3-2.8,1.3-2.9,2.2c-0.8,3.8,4.2,6.1,9.1,7.2
				c4.9,1.1,9.4-0.4,10-3.2C365.8,195.9,364.4,193.8,361.8,192.3z"/>
			<path class="st20" d="M362,193.1L362,193.1l-2.8-16.7l-11.6-0.6C347.5,175.9,352.3,188.2,362,193.1z"/>
			<path class="st8" d="M363.3,169.5c0.3-2.7-0.3-5.5-1.7-7.7c-0.2-0.1-0.3-0.1-0.5-0.1c-1,0-1.7,0-2.8-0.3
				c-1.2-0.3-1.6-0.6-2.5,0.2c-1.1,0.9-2.9,0.5-4.3,0.1c-0.9-0.2-2.5-1.2-3.3-0.4c-0.4,0.3-0.4,1-0.3,1.5c0,0.5,0.2,1-0.1,1.5
				c-0.2,0.4-0.7,0.7-0.8,1.1c-0.1,0.8,0.6,1.6,0.6,2.4c0,0.5-0.4,0.9-0.5,1.4c-0.3,1.6,1.4,2.7,1.6,4.1c0.2,1.4-1.9,0.4-2.5-0.2
				c-0.3-0.4-0.6-0.9-1-1.1c-0.5-0.2-1.1-0.1-1.6-0.2c-0.6-0.2-1.2-1-1.8-1.2c-0.1,0.1-0.1,0.1-0.2,0.2c-2.1,3.3,1.3,6.5,5.9,6.3
				c1.8,4.2,5.9,11.3,12.7,9.2C368.8,183.9,362.6,176.2,363.3,169.5z"/>

				<ellipse transform="matrix(0.9123 -0.4094 0.4094 0.9123 -38.8453 159.7013)" class="st2" cx="353.5" cy="170.6" rx="0.8" ry="0.8"/>

				<ellipse transform="matrix(0.9123 -0.4095 0.4095 0.9123 -37.838 162.4001)" class="st2" cx="360.3" cy="169.6" rx="0.8" ry="0.8"/>
			<path class="st13" d="M350.5,167.1c0,0,2-1.5,4.5-0.4"/>
			<path class="st13" d="M359.1,166.3c0,0,1.8-1.7,4.1,0"/>
			<path class="st22" d="M358,167.1c-0.3,2.1,1.1,3.6,1.6,5.6c0.2,0.6,0.3,1.8-0.4,2.1c-0.3,0.1-0.7,0.1-0.9,0
				c-0.2-0.1-0.5-0.4-0.5-0.3"/>
			<path class="st9" d="M359.9,178.5c-1,0.2-2,0.2-3-0.1c-0.6-0.1-1.3-0.4-1.9-0.8c0.5-0.1,0.8-0.4,1.2-0.6c0.5-0.3,0.7-0.3,1.2-0.1
				c0.2,0.1,0.5,0.3,0.6,0.3c0.3,0,0.2-0.1,0.5-0.3c0.4-0.2,0.8-0.3,1.2,0C360.1,177.3,360.2,178,359.9,178.5z"/>
			<path class="st24" d="M346.3,176.3c3.1,0.6,5.4,3.4,5.4,6.7c0,3.8-3.1,6.8-6.8,6.8c-3.8,0-6.8-3.1-6.8-6.8c0-3.4,2.5-6.2,5.7-6.7
				"/>
		</g>
	</g>
	<g>
		<g>
			<path class="st7" d="M407.7,137c0.7-4.1,1.8-14.2,2.7-15c1.7-1.4,4.6-2.8,5.8-4.7c-0.8-1.4-1.9-2.7-2.8-4.1
				c-0.7-1.2-0.9-2.6-1.6-3.7c-0.9-1.5-1.2-0.2-2.5-0.1c-1.4,0-2.7-0.7-4.2-0.8c-2.8-0.2-4.5,3.1-5.1,5.5c-0.4,1.6,1.1,1.9,1.3,3.4
				c0.2,1.1-1.1,1.8-1,3.1c0.1,0.8,0.6,1.2,0.9,2c0.2,0.5-0.7,10.4-1.3,14.5L407.7,137z"/>
			<path class="st9" d="M414.9,117.3c-2-0.4-3.6-2.1-5.3-3.2c-1.6-1-1.6,1-1.2,2.2c0.3,0.8,0.9,1.6,1.7,2c-2.1-0.5-5.8-0.1-5.6,2.8"
				/>
			<path class="st9" d="M407.5,117.9c-1.7-1.3-3.8-2.4-4.8-4.4"/>
		</g>
		<g>
			<path class="st7" d="M468.4,127.3c0.4-2.9,1.9-15,1.9-15c0.8-1.5,2.1-3.2,2.4-4.9c0.4-2.4-3.1-3.7-4.9-4.1
				c-2.2-0.5-2.1-1.4-3.5-3c-1.6-1.9-2.9-0.9-3.8,0.8c-0.7,1.3-1,0.7-2.2,1.3c-0.8,0.4-0.8,0.9-0.9,1.8c-0.1,1,0,2-0.1,2.9
				c-0.1,1.2-0.5,2.2,0,3.3c0.7,1.4,2.2,2.3,3,3.6c1.5,2.3,0.7,12.9,0.7,12.9C463.2,130.6,467.5,130,468.4,127.3z"/>
			<path class="st25" d="M459.8,102c0.2,0.2,0.8,0.3,1.1,0.5c0.5,0.2,1,0.5,1.5,0.7c0.7,0.3,1.8,0.7,2.1,1.5c0.3,0.6,0.2,2-0.8,1.7
				c-0.8-0.2-1.5-0.7-2.4-0.9c1,0.5,2.2,1.3,2.7,2.4c0.7,1.3,0.5,3.1-0.4,4.3"/>
			<path class="st25" d="M464.3,108.4c0,0.2,0.4,0.5,0.6,0.6c0.5,0.4,0.9,0.8,1.4,1.1c1,0.7,2.7,1.3,3.7,0.2"/>
		</g>
		<g>
			<path class="st7" d="M460.2,412.1c0,0,9.8,20.3,10.5,33c0,0-10.4,5-29.6,3.5c0,0-6.2-2.6,2.8-6.8s9.8-6,9.8-6l-7.5-21.5
				L460.2,412.1z"/>
			<path class="st8" d="M460.2,412.1l-14,2.3l5.6,15.9l15.3-1.1C464.1,420.1,460.2,412.1,460.2,412.1z"/>
			<path class="st4" d="M441.2,448.6c19.2,1.5,29.6-3.5,29.6-3.5c-0.1-1.1-0.2-2.2-0.4-3.4c-4,0.5-8.5,1-12.4,1.4
				c-8.5,0.8-9.6-3.5-9.6-3.5l0,0c-1.2,0.6-2.6,1.4-4.4,2.2C435,446,441.2,448.6,441.2,448.6z"/>
		</g>
		<g>
			<path class="st7" d="M412.2,410.6l-9,30c0,0-10.4,10.1-9.1,17.6c1.1,6.3,16.2-6.6,20.8-10.7c0.9-0.8,1.5-1.7,2-2.8l13.7-34.1
				H412.2z"/>
			<polygon class="st8" points="429.9,412.3 422.1,410.6 412.2,410.6 406.2,430.5 422.6,430.5 			"/>
			<path class="st4" d="M399.4,444.8c-2.8,3.6-6.2,9-5.4,13.4c1.1,6.3,16.2-6.6,20.8-10.7c0.9-0.8,1.5-1.7,2-2.8l0.9-2.3
				c-2.2,2.1-5.3,4.4-9.1,5.2C403.8,448.7,400.9,446.5,399.4,444.8z"/>
		</g>
		<path class="st2" d="M419,191.2c-0.2-3.7-2.5-8.4-1.7-13c0.8-4.9,2.8-9,7.1-11.6c9.5-5.9,16.5-2.1,23.8,5.5
			c7.2,7.4,8.7,17.7,12.4,26.9c3.6,8.9,11.7,15.6,16.7,23.7c5.3,8.7,8.1,25.3-3.8,29.8c-3.1,1.2-6.6,0.9-9.8,1.4
			c-4.7,0.8-8.9,2.9-13.4,4.4c-5.3,1.8-10.2,4.4-15.7,5.8c-6.9,1.7-18.3,2.1-23.9-3.3c-7.8-7.6,0.7-24.6,4.2-32.4
			c5.4-11.9,7.5-23.7,5.1-36.2C419.9,192.4,419.8,192.7,419,191.2z"/>
		<g>
			<path class="st18" d="M420.8,258.1c0,0-19.6,19-20.3,37.9c-1.8,46.9,45.7,107.1,44.2,131.8l27.2-2.4c0,0-6.7-50.6-25.5-85.4
				c0,0,24.4-42.5,15-79L420.8,258.1z"/>
			<path class="st18" d="M435,259.2l-31,168.8h28.9c0,0,10.1-78.3,21-95.6c10.9-17.2,19.2-30.3,7.6-71.3L435,259.2z"/>
			<path class="st12" d="M416.3,360.9c0,0,6.4-90.2,12.7-102.2"/>
			<line class="st12" x1="436.3" y1="404.4" x2="441.2" y2="376.5"/>
			<path class="st26" d="M447.2,266.5c0,0,8.2,20.4,19.8,29.1"/>
			<path class="st12" d="M423.4,258.3c0,0-7.1,21.3,1,21.3"/>
			<line class="st12" x1="406.1" y1="416.4" x2="434.5" y2="416.4"/>
			<line class="st12" x1="443.1" y1="417" x2="470" y2="413.9"/>
		</g>
		<g>
			<path class="st5" d="M461.9,240.9c2.7-18.7,13.4-30.4,8.9-57.1c-3.2-18.9,1-59.8,1-59.8h-13.4c-8.8,13.1-10.6,54.3-11.8,68.5
				c-0.3,4.1-3.8,7.3-7.9,7.3c0,0-3.9,0.8-7.5,2.8c-19.7-11.5-21-70.8-21-70.8h-14l-1.5,25.3c-5.2,33.7,13.5,57.2,22.5,66.3
				c-0.4,0.8-0.8,1.6-1.1,2.5c-2.1,6.6,2.7,8.5,4.8,14.8c1.1,3.3-1.1,12.6-3.4,20.9c-2.1,7.6,44,6,43.9-0.4
				C461.3,250.7,461.9,240.9,461.9,240.9z"/>
			<path class="st27" d="M416.2,225.8c2.1-6.6,8.9-9.3,9.2-16.3"/>
			<path class="st27" d="M425.4,239.4c0,0,9.7-1.8,17,1"/>
			<line class="st27" x1="446.8" y1="190.8" x2="445.2" y2="209.6"/>
		</g>
		<g>
			<path class="st7" d="M431.4,204.4l0.9-11l10.1-3.3l1.5,7.4c0.5,2.2-0.2,4.4-1.8,6l-8,9.7L431.4,204.4z"/>
			<path class="st18" d="M442.4,190.1l-10.1,3.3l-0.9,11C442.4,200.6,442.4,190.1,442.4,190.1z"/>
			<path class="st7" d="M445.9,182l-3.5,3.7c-1.6-2.6-5.3-3.3-8.9-4.5c-4.5-1.4-5.7-4.8-5.7-4.8c-1.3,7.5-4.2,10-4.3,10.1
				c0,0.3,0,0.6,0.1,0.9c1,7.5,5.9,13,11.1,12.3c3.6-0.5,6.6-4.2,7.7-9.7C448.4,187.9,445.9,182,445.9,182z"/>
			<g>
				<path class="st13" d="M435.4,182.6c0,0-2.5-1.5-4.1,0.7"/>
				<path class="st13" d="M427.2,184.3c0,0-2.2-1-3.1,1.4"/>
				<path class="st9" d="M428.9,184.5c1.1,1.8,0.3,3.8,0.5,5.8c0.1,0.6,0.4,1.8,1.1,1.8c0.3,0,0.6-0.2,0.9-0.4
					c0.1-0.1,0.3-0.5,0.4-0.5"/>
				<path class="st0" d="M430.9,193.8c1.1,0,2.2-0.6,3.2-1.1c0.6-0.3,1.2-0.7,1.6-1.1c0,0,1.1,3.4-2.3,4.4L430.9,193.8z"/>
				<path class="st9" d="M427.8,186.5c-0.7-0.3-2.1,0.4-2.5,1"/>
				<path class="st9" d="M434.6,184.8c-0.6-0.5-2.2,0-2.6,0.5"/>
			</g>
		</g>
	</g>
</g>
</svg>
