<?xml version="1.0" encoding="utf-8"?>
<!-- Generator: Adobe Illustrator 20.1.0, SVG Export Plug-In . SVG Version: 6.00 Build 0)  -->
<svg version="1.1" id="_x3C_Layer_x3E_" xmlns="http://www.w3.org/2000/svg" xmlns:xlink="http://www.w3.org/1999/xlink" x="0px"
	 y="0px" viewBox="0 0 2975 1700" style="enable-background:new 0 0 2975 1700;" xml:space="preserve">
<style type="text/css">
	.st0{fill:#FFFFFF;}
	.st1{fill:#FBECDB;}
	.st2{fill:#A8D29F;}
	.st3{fill:#4A75CB;}
	.st4{fill:#699DEE;}
	.st5{fill:#D86713;}
	.st6{fill:#F1A34F;}
	.st7{fill:#C95C12;}
	.st8{fill:#82B378;}
	.st9{fill:#FFB973;}
	.st10{fill:#ED975D;}
	.st11{fill:#2B478B;}
	.st12{fill:#233862;}
	.st13{fill:#1E3D70;}
	.st14{fill:#FFB27D;}
	.st15{fill:#2C3A64;}
	.st16{fill:#4A82D3;}
	.st17{fill:#A9453D;}
	.st18{fill:#EE9849;}
	.st19{fill:#E58638;}
	.st20{fill:#2A4E96;}
	.st21{fill:#35488B;}
	.st22{fill:#2E3552;}
	.st23{fill:#4271BC;}
</style>
<rect class="st0" width="2975" height="1700"/>
<g>
	<g>
		<path class="st1" d="M327.6,1532.5c0,0-282.7-602,274.5-602c294.4,0,173.1-165.2,373.2-356.3c200.1-191.1,900.1-343.9,1049,25.2
			c149,369.1-219.2,649.4,136.6,601.3c427.5-57.8,596.4,331.8,596.4,331.8H327.6z"/>
		<path class="st2" d="M2617.1,1456.1c-26.4-19.3-80.3-6.3-120.1,7.7c-5.9-8.4-13.2-17-21.9-25.4c85.7-55.2,204.1-173,141.3-182.9
			c-54.5-8.7-128.1,97.3-167.5,161.8c-40.8-27.5-103.4-47.7-199-40.7c-248,18.2-441.8-141.8-584.6-88.4
			c-113.6,42.4-217.6,66.2-318,58.1c4.3-73.3,5.3-217.3-52.3-232.2c-58.4-15.2-1.1,148.3,30.7,229.9c-7.5-1-14.9-2.1-22.4-3.4
			c-20.6-40.7-54.6-93.9-92-95.7c-35.2-1.7,8.2,46.2,50.9,86.7c-122.7-25.8-268.3,74-270.7,192H2524c0,0-2.7-17.2-14.7-39.9
			C2568.5,1482.4,2645.7,1477,2617.1,1456.1z"/>
		<g>
			<g>
				<rect x="922.1" y="1432.3" class="st3" width="403.8" height="91.2"/>
				<rect x="797.6" y="1432.3" class="st4" width="403.8" height="91.2"/>
			</g>
		</g>
		<g>
			<g>
				<g>
					
						<rect x="1484.8" y="1103.2" transform="matrix(-1 -1.224647e-16 1.224647e-16 -1 3270.377 2626.6494)" class="st5" width="300.7" height="420.3"/>
					
						<rect x="1392.1" y="1103.2" transform="matrix(-1 -1.224647e-16 1.224647e-16 -1 3084.9385 2626.6494)" class="st6" width="300.7" height="420.3"/>
				</g>
			</g>
			<polygon class="st7" points="1692.8,1103.2 1785.5,1166.3 1785.5,1103.2 			"/>
		</g>
		<g>
			<path class="st8" d="M764.6,1196.3c0,0-56.2,41.8-67.2,39.3c-11-2.5,41.1-45.1,41.1-45.1c-19.6-9.4-80.5-3.5-80.5-3.5
				s-20.3,65.4-30.3,60.3c-10-5.2,20.9-57,20.9-57c-21.8-1.3-48.6,14.9-48.6,14.9c-36.6,28.9,2.4,74.5,2.4,74.5s-7.5,22.5-30.7,43
				c0,0-33,24.4-35.3,68.1l6,0.5c0,0,9.5-40.7,26.8-59.9c0.7-0.7,1.6-1.7,2.9-2.9c2.8-2.6,4.8-4.6,6.1-6
				c8.6-8.3,20.5-18.8,26.2-19.8c0,0-0.3-1.1-0.2-2.9c0.1,0.9,0.2,1.9,0.2,2.9c2,23,46.6,43.1,74.1,47.3c27.5,4.1,19-7.2,9.5-23.9
				c-9.5-16.7-39.4-24.2-46.3-32c-6.8-7.7,7.3-7.7,23.9-0.2c16.6,7.6,18.8,27.7,45.4,40.4c26.6,12.7,66.5-31.4,66.5-31.4
				c-21.2-1.1-51.4-24.1-50.3-31.1c1.1-7,51.3,12.1,59.9,13.1c8.6,0.9,28.1-9.8,31.1-44.3C821.2,1205.9,764.6,1196.3,764.6,1196.3z"
				/>
			<g>
				<path class="st2" d="M465.9,1222.2c0,0,62.1-34.8,33.1-82c0,0-23.2-29-48-36.4c0,0,13.3,70.4,0,72.1
					c-13.3,1.7-9.1-79.5-9.1-79.5s-65.4-31.5-91.1-29c0,0,40.6,68.7,27.3,67.1c-13.3-1.7-58.8-71.2-58.8-71.2s-67.1-12.4-77.8,27.3
					c-10.8,39.8,6.6,59.6,16.6,62.1c9.9,2.5,73.7,1.7,72.1,9.9c-1.7,8.3-44.7,21.5-68.7,14.1c0,0,26.5,65.4,61.3,62.1
					c34.8-3.3,45.5-24.8,67.1-26.5s37.3,4.1,26.5,9.9c-10.8,5.8-47.2,1.9-64.6,16.7c-17.4,14.8-31.5,23.9,0.8,30.5
					c32.3,6.6,90.3,2.5,101.9-22.4C465.9,1222.2,465.9,1222.2,465.9,1222.2z"/>
				<path class="st8" d="M482.5,1282.7c-17.4-32.3-16.6-60.5-16.6-60.5C446,1159.3,272.1,1103,272.1,1103
					c221.1,89.4,182.2,144.1,182.2,144.1c6,3.5,14.9,20.1,21.1,32.8c0.9,2.2,2.3,5.2,4.4,9.2l0,0c0.8,1.8,1.5,3.3,2,4.4
					c11.4,28.5,5.4,77.7,5.4,77.7l6.9,1.9C509.3,1323.4,482.5,1282.7,482.5,1282.7z"/>
			</g>
			<g>
				<path class="st2" d="M564.7,1174.3c0,0-81.9-45.9-43.7-108.1c0,0,30.6-38.2,63.3-48c0,0-17.5,92.8,0,95
					c17.5,2.2,12-104.8,12-104.8s86.2-41.5,120.1-38.2c0,0-53.5,90.6-36,88.4c17.5-2.2,77.5-93.9,77.5-93.9s88.4-16.4,102.6,36
					c14.2,52.4-8.7,78.6-21.8,81.9c-13.1,3.3-97.2,2.2-95,13.1s59,28.4,90.6,18.6c0,0-34.9,86.2-80.8,81.9
					c-45.9-4.4-60-32.8-88.4-34.9s-49.1,5.5-34.9,13.1c14.2,7.6,62.2,2.5,85.2,22c22.9,19.5,41.5,31.5-1.1,40.2
					c-42.6,8.7-119,3.3-134.3-29.5C564.7,1174.3,564.7,1174.3,564.7,1174.3z"/>
				<path class="st8" d="M820.2,1017.1c0,0-229.3,74.2-255.5,157.2c0,0,1.1,37.1-21.8,79.7c0,0-35.4,53.7-15.2,119l9.1-2.4
					c0,0-8-64.8,7.1-102.4c0.6-1.4,1.5-3.4,2.6-5.8c0,0,0,0,0,0c2.7-5.4,4.6-9.3,5.7-12.2c8.2-16.8,20-38.6,27.8-43.2
					C580,1207,528.7,1135,820.2,1017.1z"/>
			</g>
			<path class="st6" d="M562,1514.7c88.6,0,160.4-71.8,160.4-160.4H401.6C401.6,1442.9,473.4,1514.7,562,1514.7z"/>
			<path class="st9" d="M601.4,1513.5c-6.5,0.8-13.2,1.2-19.9,1.2c-88.6,0-160.4-71.8-160.4-160.4H461
				C461,1436.2,522.2,1503.7,601.4,1513.5z"/>
			<path class="st6" d="M704.8,1503.7H419.1c-10.9,0-19.8,8.9-19.8,19.8h325.2C724.6,1512.6,715.7,1503.7,704.8,1503.7z"/>
			<path class="st5" d="M723.5,1354.3H398.8c-1.4,0-2.5,1.1-2.5,2.5s1.1,2.5,2.5,2.5h324.8c1.4,0,2.5-1.1,2.5-2.5
				S724.9,1354.3,723.5,1354.3z"/>
		</g>
		<g>
			<path class="st10" d="M1961.1,509.8c-4.6-0.7-18.7,12.2-18.7,12.2l0,0c-29.9,3.5-73.6,11.4-89.4,14.4
				c-11.2,2.1-41.2-8.1-70.5-19.8c-34.9-14-68.8-30.1-68.8-30.1c-19.3-1-41.3,34.3-2.1,56.8c6,3.4,28.5,9.3,54.4,14.6c0,0,0,0,0,0
				c35.8,7.4,78,13.8,92.4,11.5c16.7-2.6,64-19.9,92.1-33.1v0c0,0,0,0,0.1,0c0.1,0,0.2-0.1,0.3-0.1c1.7-0.8,8.6-3.9,13.2-3.6
				c5.3,0.3,17-9.3,17.4-11.9C1981.9,518,1965.8,510.5,1961.1,509.8z"/>
			<path class="st11" d="M1924.6,954.5l-16.5,3.3c0,0-75.4-84.7-87-120.3c-6.2-19-46-27.3-87.6-38c-36.2-9.4-73.7-20.6-91.7-42.6
				c-38.5-47.3,24.2-105.3,24.2-105.3s66.7,39.7,124.3,80.6c40.2,28.6,76,57.9,81.4,74.7C1884.8,847.8,1912.6,925.5,1924.6,954.5z"
				/>
			<path class="st12" d="M1902.6,982.4h9.3c3.1-0.5,5.4-1.4,8.6-1.8c4.8-0.6,7.1,1.3,7.5,1.8c0.1,0.1,0.1,0.1,0.1,0.1h39.4
				c1-1.4,0-4.7-0.9-7.1c-0.6-1.6-2-2.9-3.7-3.4c-4.2-1.2-12.4-2.3-19.9-9.1c-4.2-3.8-20.5-14.1-20.5-14.1l-0.1,0
				c-0.4,0-2.1,0.5-9.4,6.8c-3.8,3.2-10.3-4.5-10.3-4.5s-1.2,1-2.1,2.9c-0.7,1.5-1.3,3.5-0.8,6c0.6,3.5-1.3,10.1-2.8,14.6
				c-0.9,2.7-1.7,4.6-1.7,4.6S1894.6,981.4,1902.6,982.4z"/>
			<path class="st13" d="M1790.4,732.1l-56.8,67.3c-36.2-9.4-73.7-20.6-91.7-42.6c-38.5-47.3,24.2-105.3,24.2-105.3
				S1732.8,691.2,1790.4,732.1z"/>
			<path class="st11" d="M1738.7,697c0,0-4.6,14.4-12,36.2c-9.4,27.5-23.5,66.6-38.7,102.9c-3.3,8-6.8,15.8-10.2,23.4
				c-12.7,27.9-25.6,51.9-37.1,64c-20.5,21.9-70.4,162.4-70.4,162.4l-12.4-3.4c0,0-17.3-120,44.1-188.3c0.7-0.7,1.2-1.6,1.2-2.5
				c0,0,0,0,0,0c0.8-10.1,3.7-55.4,10.1-101.3c1.6-11.3,3.3-22.5,5.3-33.4c0.1-0.7,0.3-1.4,0.4-2.1c9.3-50,18.3-72.2,29.8-83.4
				l84.9,24.2L1738.7,697z"/>
			<path class="st12" d="M1556.5,1103.1h9.3c3.1-0.5,5.4-1.4,8.6-1.8c4.8-0.6,7.1,1.3,7.5,1.8c0.1,0.1,0.1,0.1,0.1,0.1h39.4
				c1-1.4,0-4.7-0.9-7.1c-0.6-1.6-2-2.9-3.7-3.4c-4.2-1.2-12.4-2.3-19.9-9.1c-4.2-3.8-20.5-14.1-20.5-14.1l-0.1,0
				c-0.4,0-2.1,0.5-9.4,6.8c-3.8,3.2-10.3-4.5-10.3-4.5s-1.2,1-2.1,2.9c-0.7,1.5-1.3,3.5-0.8,6c0.6,3.5-1.3,10.1-2.8,14.6
				c-0.9,2.7-1.7,4.6-1.7,4.6S1548.6,1102.1,1556.5,1103.1z"/>
			<path class="st14" d="M1574.7,533.7c0,0-14.2,34.7-30.6,68.5c-13.8,28.4-29.1,56.2-38.8,62.1c-13.7,8.4-51.4,31.9-75.8,49.5
				c0,0-19.1-0.1-22,3.5c-3,3.7-9.8,20.1-7.8,21.7c2,1.7,17.2,0.9,20.8-2.9c3.2-3.3,10.4-5.7,12.1-6.2c0.1,0,0.2-0.1,0.3-0.1
				c0,0,0.1,0,0.1,0v0c29.7-9.1,76.3-28.2,90.4-37.5c12.1-8,39.1-41.2,60.5-70.7c0,0,0,0,0,0c15.6-21.4,28.3-40.9,30.4-47.4
				C1628.4,531.3,1588.4,520,1574.7,533.7z"/>
			<path class="st15" d="M1649,397.5c-1.7-2.5-3.4-4.6-5.1-6.6c2.1,0,4.4-0.2,6.3-0.9c5-2.1,7.3-17.9,6.5-22.6
				c-0.7-4.7-7.7-18.3-16.2-19.6c-8.5-1.4-17.4,8.1-17.4,8.1c1.6-6.8,16-10.8,16-10.8c-29.8,5.5-28.2,25.3-28,27.2
				c-27.2-9.7-43.2,41.6-43.2,41.6l70.5,41.6c0,0,0.2-11.3,6.9-10.6C1655.9,446,1664.6,420.2,1649,397.5z"/>
			<path class="st14" d="M1653.5,505.1c-16.2,7.6-37.7-3.4-37.6-3.5c1.4-1.4,0.9-5.5-0.4-11c-1.3-5.7-4.3-13.4-9.8-22.7
				c-1.2-2-2.3-3.9-3.7-6l1.9-0.7l31.4-12.6c0,0,5.1,9.1,10.4,17.5c4.5,6.9,9.2,13.2,11.3,13C1657.2,479,1678,493.3,1653.5,505.1z"
				/>
			<path class="st10" d="M1635.3,451.8c-0.8,11.2-4.6,31.4-19.8,38.9c-1.3-5.7-4.3-13.4-9.8-22.7L1635.3,451.8z"/>
			<path class="st14" d="M1603.9,480.8c0,0,40.9-16.1,30.5-41.5c-10.4-25.3-12.2-44.5-38.8-35.3c-26.6,9.2-27.6,21-26.2,30.3
				C1570.8,443.6,1593,484.3,1603.9,480.8z"/>
			<path class="st15" d="M1619.2,433.5c18.9-2.7,24.4-10.3,24.4-10.3s-17.4-5-27.6-22c0,0-21.2-7.2-37,4.8c-1,1.2-1.6,2.7-2,4.4
				c-3.6-1.2-9-0.9-12.2,9.3c-4.7,15.3,12,32.1,12,32.1c4.1-1.1-0.5-14.8-1.2-22.1c-0.5-5.4,2.4-12.2,4-15.5
				c2,2.6,21.9,27.7,46.3,28.7c0,0-12.9-4.5-24.6-13.2C1607.2,432.5,1613.4,434.3,1619.2,433.5z"/>
			<path class="st4" d="M1731.5,557.3c-0.3-1.2-0.7-2.5-1.1-3.8c6.1-11.6,9.1-22.1,10.3-31c2.8-18.7-2-30.3-2-30.3
				s-28.4-15.1-40.9-17c-0.1,0-0.1,0-0.2,0c-0.1,0-0.3,0-0.5,0c-12.7-1.7-40.1,3.8-40.1,3.8s5.3,14.1-9.6,23.5
				c-14.9,9.4-30.8-2.4-30.8-2.4c-0.5,0.3-1,0.7-1.5,1.1c0,0,0,0,0,0c0,0-39.2,25.9-42.8,31.8c-3.5,5.9-18.6,35.2-18.6,35.2
				s4.8,24.6,57.8,26.7c4.4,10.6,7.7,20.9,8.8,29.5c4.2,33.4-0.7,59.7,4.2,79.2c4.9,19.5,93.4,8.4,109.4,4.6
				c16-3.8,12.4-20.9,13.6-37.5C1749.1,649.8,1736.7,575.7,1731.5,557.3z"/>
			<path class="st16" d="M1740.7,522.6c-1.3,8.9-4.3,19.4-10.4,31.1c-1.4-6.1-7.1-28.6-16.2-38.7
				C1714.1,514.9,1729.5,516.3,1740.7,522.6z"/>
		</g>
		<g>
			<path class="st10" d="M1380.5,741.4c0,0,16.5-20,20-22.3c3.5-2.4,19.1-6.5,20-5.7c0.9,0.8,0.9,2-1,3.7c-1.9,1.7-9.3,6-8.2,6.5
				c1.1,0.5,23.3-10.6,26.5-6.9c3.2,3.7-1.8,19.1-10.4,26.4s-34.1,10.5-35.7,11.5C1378.1,763.4,1380.5,741.4,1380.5,741.4z"/>
			<path class="st14" d="M1090.4,695.3c0,0,23.7,28.1,53.8,16.3c0,0,6.5-15.7,6.6-27.3c0-1.4,0-2.8,0-4.1c0.2-13,0.6-20.3,0.6-20.3
				s0,0,0,0c-1.4-0.6-46.1-18.9-46-17.4C1106.1,677.7,1090.4,695.3,1090.4,695.3z"/>
			<path class="st10" d="M1109.9,650.9c4.3,8,19.1,23.6,41,29.3c0.2-13,0.6-20.3,0.6-20.3s0,0,0,0
				C1150.2,659.6,1108.6,648.5,1109.9,650.9z"/>
			<path class="st14" d="M1160.8,658.6c0,0-50.3,11.8-57.2-19.6c-6.9-31.4-18-51.1,13.8-59.9c31.8-8.9,40.7,1.7,45.5,11.7
				C1167.8,600.6,1173.7,654.7,1160.8,658.6z"/>
			<path class="st17" d="M1105.4,647.5c-0.7,0.4-11.5,3.8-32-37.1c-3.2-6.4-5.4-20.3,2.1-32.5c7.5-12.2,34.1-21.9,56.2-26.1
				c22.1-4.2,27.4,8.2,32.6,20.7c5.5,13.1,21.2,23.9,21.2,23.9c-19,10.6-42-4.6-49.9-2.1c-7.9,2.5-10.8,15-11.4,19
				c-0.6,4-1.5,7.4-11.5,3.8c-10-3.6-4.5,14.2-2.9,17.6C1109.7,634.8,1111.1,643.8,1105.4,647.5z"/>
			<g>
				<path class="st15" d="M975.8,1432.3h-30.5c-6.4,0-13.5-6.5-15.3-18.3c-1.8-11.9-14.9-18.3-17.7-28c-2.8-9.7,11.7-23.4,11.7-23.4
					l2.4-3.2l2.5-3.3l24.1,5.7c0,0,0.6,5.8,1,13.2c0.3,5.4,0.4,11.5,0.1,17c-0.7,12.9,3.6,26.9,14.9,29.4
					C980.5,1424,975.8,1432.3,975.8,1432.3z"/>
				<path class="st15" d="M1187.8,1432.6h-80.7c-0.8-0.2-1.4-0.3-1.7-0.5c-5.4-2.8-3.7-24-3.1-30.6c0.1-1.2,0.2-1.9,0.2-1.9
					s28.4-23.4,32.3-5.5c0.1,0.6,0.3,1.1,0.4,1.6v0c4.9,16.7,27,24.3,39.7,26.5C1184.6,1423.9,1187.1,1429.7,1187.8,1432.6z"/>
				<path class="st18" d="M1171.5,965.9c0,0-4.3,53.8-9.4,118.4c-6.9,87.8-15.2,195.7-16,216.1c-1.4,35.5-7.1,92.2-7.1,92.2
					s-13.5,13.5-40.4,7.8c0,0-24-81-30.9-166.8c-0.1-1.4-0.2-2.8-0.3-4.2c-6.4-87.3-16.3-271-16.3-271L1171.5,965.9z"/>
				<path class="st19" d="M1171.5,965.9c0,0-4.3,53.8-9.4,118.4l-94.4,149.4c-0.1-1.4-0.2-2.8-0.3-4.2c-6.4-87.3-16.3-271-16.3-271
					L1171.5,965.9z"/>
				<path class="st18" d="M1151.8,972.2c0,0-77.7,194.8-128.8,286.3c-51.1,91.5-67,117.1-67,117.1s-29.3-11.7-31.9-19.7
					c0,0,19.5-176.7,53.7-219.8c19.3-24.3,42-97.4,43.1-122.9c1.1-25.5,6.9-76.1,6.9-76.1L1151.8,972.2z"/>
			</g>
			<g>
				<path class="st10" d="M974,939.8c0,0-2,24.3-3.5,28.1c-1.5,3.7-11.3,15.3-12.4,15.1s-1.8-1.1-1.2-3.4c0.6-2.4,4-9.6,2.9-9.5
					c-1.1,0.2-12.3,20.7-16.8,19.5c-4.5-1.2-8.9-15.7-6.2-26c2.7-10.3,20.7-26.5,21.4-28.1C964,921.4,974,939.8,974,939.8z"/>
				<path class="st13" d="M965.6,946c8.6,2.8,10,2.1,10,2.1s41.9-76.2,46.1-83.2c4.2-7,88.9-85.5,88.9-85.5l-21.7-81.1
					c0,0-96.3,124.6-106.6,142.5c-17.2,29.6-27.2,98.2-27.2,98.2S958.9,943.8,965.6,946z"/>
			</g>
			<path class="st20" d="M1187.9,811.3c-0.3,16.7-1.3,35.4-2.6,54.4c-0.1,1.1-0.2,2.3-0.2,3.4c-0.8,11.8-1.7,23.6-2.8,35.1
				c-0.4,4.6-0.9,9.2-1.3,13.7l-0.1,0.6c0,1.7-0.2,3.5-0.4,5.2c-4.2,43.1-8.7,77.2-9.5,77.7c-1,0.7-2.1,1-3.3,0.8
				c-11.3-1.4-45.1,1.1-72.7-4.9c-23.3-4.9-43.4-14.2-64.7-26.8c-2.8-1.7-9.3-6.1-8.7-9.4c0.5-3.6,1.5-8.9,2.7-15.5
				c4.2-22.9,11.4-62.4,13.9-108.6c0.5-8.6,1.2-17.1,2.1-25.5c2.4-21.8,6.2-42.4,11.3-60.8c9.5-34.1,23.4-60.2,40.9-70.4
				c2.3-1.3,14.6,6.5,25.8,13.8c10.4,6.7,21.4,8.5,32,7.6l9.4,10.4c11.4,13.2,23.5,30.8,26.8,55.8c0.2,1.8,0.5,3.8,0.6,5.9
				C1188,784,1188.2,796.9,1187.9,811.3z"/>
			<path class="st13" d="M1187.9,811.3c-0.3,16.7-1.3,35.4-2.6,54.4c-0.1,1.1-0.2,2.3-0.2,3.4c-64.6-40.4-74.6-114.4-74.6-114.4
				c31.8,1.4,57,8.7,76.5,19.1C1188,784,1188.2,796.9,1187.9,811.3z"/>
			<g>
				<path class="st20" d="M1390.3,743.4c-3.3-9-8.5-8.4-8.5-8.4s-96.1,23.9-104.7,25c-8.6,1-103.4-37-103.4-37s-37.3-16.7-54.8-1.5
					c-15.2,13.3-15.9,30.1-12.3,44.3c4.2,16.8,18.5,29.3,35.7,31.5c38.7,4.9,115.9,14.2,132,11.9c36-5,117.6-52.1,117.6-52.1
					S1392.9,750.5,1390.3,743.4z"/>
			</g>
		</g>
		<g id="man_2_">
			<g>
				<path class="st15" d="M2337.5,919.4c0,0,13.3,12.4,10.7,21.2c-2.6,8.8-14.6,14.6-16.3,25.4s-8.1,16.6-14,16.6s-27.9,0-27.9,0
					s-4.3-7.6,6.1-9.8c10.4-2.3,14.3-14.9,13.7-26.6c-0.7-11.7,1-27.3,1-27.3l22.1-5.2L2337.5,919.4z"/>
				<path class="st15" d="M2171.1,981.1c-1.4,0.7-6.1,1.1-12.6,1.5h-63.2c0.2-1.9,1.7-8.6,12-10.2c11.7-1.9,31.9-8.7,36.4-23.6
					c0.2-0.5,0.3-1,0.4-1.5c3.6-15.9,29.6,4.9,29.6,4.9s0.1,0.6,0.2,1.7C2174.5,959.7,2176.1,978.6,2171.1,981.1z"/>
				<path class="st21" d="M2110.4,554.5c0,0,4,49.3,8.6,108.6c6.3,80.6,13.9,179.5,14.7,198.3c1.3,32.6,6.5,84.6,6.5,84.6
					s12.4,12.4,37.1,7.2c0,0,22-74.3,28.3-153c0.1-1.3,0.2-2.6,0.3-3.9c5.9-80.1,15-248.7,15-248.7L2110.4,554.5z"/>
				<path class="st15" d="M2110.4,554.5c0,0,4,49.3,8.6,108.6l86.6,137.1c0.1-1.3,0.2-2.6,0.3-3.9c5.9-80.1,15-248.7,15-248.7
					L2110.4,554.5z"/>
				<path class="st21" d="M2128.5,560.4c0,0,71.3,178.7,118.1,262.7c46.9,84,61.5,107.4,61.5,107.4s26.9-10.7,29.3-18.1
					c0,0-17.9-162.1-49.3-201.6c-17.7-22.3-38.6-89.3-39.5-112.8c-1-23.4-6.3-69.8-6.3-69.8L2128.5,560.4z"/>
			</g>
			<g>
				<path class="st14" d="M1908.6,463.5c0,0-19.3-4.4-22.6-4.2c-3.3,0.2-14.6,5-14.8,5.9c-0.2,0.9,0.4,1.7,2.4,1.8
					c2,0.1,8.4-0.7,8,0.1c-0.4,0.8-19.1,4.4-19.3,8.2c-0.2,3.8,10,10.7,18.6,11.2c8.6,0.5,25.6-9.6,27.1-9.7
					C1920.4,475.7,1908.6,463.5,1908.6,463.5z"/>
				<path class="st19" d="M1900.4,468.4c-2.8-8.8-2.1-10.2-2.1-10.2s78.4-42.4,85.5-46.7c7.2-4.3,88.2-90.5,88.2-90.5l83,22.8
					c0,0-128.4,97.8-146.8,108.3c-30.4,17.4-100.8,27.3-100.8,27.3S1902.5,475.3,1900.4,468.4z"/>
			</g>
			<path class="st14" d="M2097.1,279.1c0,0-29.1,51.2-57.5,57.9c0,0,1.2-17.2,8.1-28.9c-2.8-3.3-5.3-6.4-7.5-9.2
				c-7.2-9.2-10.6-14.8-10.6-14.8l9.6-25.9l6.5-17.6c3.1,5.7,6.6,10.6,10.2,14.7C2074.7,276.7,2097.1,279.1,2097.1,279.1z"/>
			<path class="st10" d="M2056.1,255.3c0,0,3.5,25.6-15.9,43.6c-7.2-9.2-10.6-14.8-10.6-14.8l9.6-25.9
				C2049.6,255,2056.1,255.3,2056.1,255.3z"/>
			<path class="st14" d="M2022,287.8c0,0,43.5-16.9,32.5-43.8c-11-26.9-12.7-47.2-41-37.5c-28.2,9.7-29.4,22.1-27.9,32
				C1987.1,248.3,2010.4,291.5,2022,287.8z"/>
			<path class="st18" d="M2246.5,541.7c-17.5,25.2-148.6,58.9-147,41.4c0.6-6.7,1.4-18.4,0-34.4c-0.3-3.7-0.8-7.7-1.4-11.9
				c-3.3-22.9-11.2-52.4-28.9-86.5c-1.3-2.6-2.7-5.1-4.1-7.7c-7.3-13.2-13.5-27.2-18.2-40.8c-9.1-26.2-12.7-51.3-8.2-67.8
				c0-0.1,0-0.2,0.1-0.2c27.4-12.7,38-61.8,38-61.8s93.5,16.8,145.8,141.4C2222.6,413.3,2261.7,519.7,2246.5,541.7z"/>
			<path class="st19" d="M2099.4,548.7c-0.3-3.7-0.8-7.7-1.4-11.9c-3.3-22.9-11.2-52.4-28.9-86.5c3-18.4,7.2-33.6,11.8-40.5
				c18.6-27.9,29.5-32.3,29.5-32.3S2138.4,495.4,2099.4,548.7z"/>
			<g>
				<path class="st14" d="M1952.1,520.7c0,0-25.9,1.4-29.9,2.8c-4,1.4-16.6,11.5-16.5,12.7c0.1,1.2,1.1,2,3.6,1.4
					c2.5-0.5,10.3-3.9,10.1-2.8c-0.2,1.1-22.3,12.4-21.3,17.2c1.1,4.8,16.4,9.9,27.4,7.4c11-2.5,28.7-21.2,30.5-21.8
					C1971.2,531.8,1952.1,520.7,1952.1,520.7z"/>
				<path class="st18" d="M1947.2,530.5c-5.2-8.4-1.4-12.2-1.4-12.2s79.9-62.5,86.1-68.9c6.3-6.3,35.3-106.9,35.3-106.9
					s10-40.7,33.4-45.2c20.3-3.9,34.4,6.1,43.5,17.9c10.9,14,12,33.4,2.9,48.7c-20.4,34.4-61.5,102.6-73.5,114.2
					c-26.7,25.9-116.2,62.2-116.2,62.2S1951.3,537,1947.2,530.5z"/>
			</g>
			<path class="st11" d="M2060.7,194c0.3-0.6,1.2-1.2,3.3-1.9c0,0-2-0.7-4.4-0.2c-1.2-3-4.2-8-9.7-8.1c0,0,3.2,0.8,4.4,4
				c-7.6-4.8-21.8-6.2-57,5.5c-46.5,15.5-23.3,42.5-16.2,44.6c7,2.2,20-11.7,31.7-13.6c11.7-1.9,18,14.4,22.4,15.7
				c4.4,1.3,1.9-2.3,6.6-6.1c4.7-3.7,7.3,5,7.2,11.1c-0.1,6.1,9,11.9,9,11.9s0,0,5.3-9.8c5.3-9.8,3.9-45.2-1.2-51.6
				C2061.6,195.2,2061.2,194.6,2060.7,194z"/>
		</g>
		<path class="st22" d="M2824.2,1532.9H199.6c-1.9,0-3.5-1.6-3.5-3.5v-2.5c0-1.9,1.6-3.5,3.5-3.5h2624.6c1.9,0,3.5,1.6,3.5,3.5v2.5
			C2827.7,1531.3,2826.1,1532.9,2824.2,1532.9z"/>
		<polygon class="st23" points="1326,1431.3 1326,1483.9 1201.4,1431.3 		"/>
		<rect x="1979.8" y="982.6" class="st3" width="411.8" height="540.9"/>
		<rect x="1852.8" y="982.6" class="st4" width="411.8" height="540.9"/>
		<polygon class="st23" points="2391.6,982.6 2391.6,1063.5 2264.7,982.6 		"/>
	</g>
</g>
</svg>
